<svg width="113" height="69" viewBox="0 0 113 69" fill="none" xmlns="http://www.w3.org/2000/svg">
<path d="M0.0465088 38.137C0.0465088 34.3966 3.07871 31.3644 6.81911 31.3644H105.682C109.423 31.3644 112.455 34.3966 112.455 38.137V61.9096C112.455 65.65 109.423 68.6822 105.682 68.6822H6.81912C3.07871 68.6822 0.0465088 65.65 0.0465088 61.9096V38.137Z" fill="#F3F4FF"/>
<path d="M20.3643 46.0726V53.974" stroke="#4E60FF" stroke-width="1.26986" stroke-linecap="round" stroke-linejoin="round"/>
<path d="M16.4136 50.0233H24.3149" stroke="#4E60FF" stroke-width="1.26986" stroke-linecap="round" stroke-linejoin="round"/>
<path d="M42.4675 52.6107C42.5149 52.7134 42.5386 52.8161 42.5386 52.9188C42.5386 53.1006 42.4636 53.2546 42.3135 53.3811C42.1712 53.5075 42.0053 53.5707 41.8157 53.5707C41.6892 53.5707 41.5707 53.5391 41.4601 53.4759C41.3495 53.4048 41.2626 53.2981 41.1994 53.1559L40.4882 51.5677H36.3163L35.6052 53.1559C35.542 53.2981 35.4551 53.4048 35.3444 53.4759C35.2338 53.5391 35.1114 53.5707 34.977 53.5707C34.7953 53.5707 34.6294 53.5075 34.4792 53.3811C34.3291 53.2546 34.2541 53.1006 34.2541 52.9188C34.2541 52.8161 34.2778 52.7134 34.3252 52.6107L37.5963 45.5824C37.6675 45.4244 37.7741 45.3059 37.9163 45.2268C38.0665 45.1399 38.2245 45.0965 38.3904 45.0965C38.5564 45.0965 38.7104 45.1399 38.8527 45.2268C39.0028 45.3059 39.1134 45.4244 39.1845 45.5824L42.4675 52.6107ZM36.8378 50.3825H39.9667L38.4023 46.8624L36.8378 50.3825ZM48.6498 45.1083C48.871 45.1083 49.0527 45.1715 49.195 45.298C49.3372 45.4244 49.4083 45.5903 49.4083 45.7957V52.8833C49.4083 53.0966 49.3411 53.2665 49.2068 53.3929C49.0725 53.5193 48.8947 53.5825 48.6735 53.5825C48.4522 53.5825 48.2744 53.5193 48.1401 53.3929C48.0058 53.2665 47.9386 53.0966 47.9386 52.8833V52.587C47.7648 52.9109 47.512 53.1638 47.1801 53.3455C46.8561 53.5272 46.4848 53.6181 46.066 53.6181C45.5682 53.6181 45.1218 53.4917 44.7267 53.2388C44.3396 52.986 44.0354 52.6304 43.8141 52.1722C43.6008 51.706 43.4941 51.1726 43.4941 50.5721C43.4941 49.9716 43.6008 49.4462 43.8141 48.9958C44.0354 48.5454 44.3396 48.1978 44.7267 47.9528C45.1139 47.7079 45.5603 47.5854 46.066 47.5854C46.4848 47.5854 46.8561 47.6723 47.1801 47.8461C47.5041 48.02 47.753 48.2649 47.9268 48.581V45.772C47.9268 45.5745 47.99 45.4165 48.1164 45.298C48.2507 45.1715 48.4285 45.1083 48.6498 45.1083ZM46.4571 52.4685C46.9312 52.4685 47.2947 52.3065 47.5475 51.9825C47.8083 51.6586 47.9386 51.1963 47.9386 50.5958C47.9386 49.9953 47.8083 49.537 47.5475 49.221C47.2947 48.897 46.9352 48.7351 46.469 48.7351C45.9949 48.7351 45.6275 48.8931 45.3667 49.2091C45.106 49.5252 44.9756 49.9795 44.9756 50.5721C44.9756 51.1726 45.106 51.6388 45.3667 51.9707C45.6275 52.3025 45.9909 52.4685 46.4571 52.4685ZM56.0219 45.1083C56.2431 45.1083 56.4249 45.1715 56.5671 45.298C56.7093 45.4244 56.7804 45.5903 56.7804 45.7957V52.8833C56.7804 53.0966 56.7133 53.2665 56.579 53.3929C56.4446 53.5193 56.2668 53.5825 56.0456 53.5825C55.8244 53.5825 55.6466 53.5193 55.5123 53.3929C55.3779 53.2665 55.3108 53.0966 55.3108 52.8833V52.587C55.137 52.9109 54.8841 53.1638 54.5523 53.3455C54.2283 53.5272 53.8569 53.6181 53.4382 53.6181C52.9404 53.6181 52.4939 53.4917 52.0989 53.2388C51.7117 52.986 51.4075 52.6304 51.1863 52.1722C50.9729 51.706 50.8663 51.1726 50.8663 50.5721C50.8663 49.9716 50.9729 49.4462 51.1863 48.9958C51.4075 48.5454 51.7117 48.1978 52.0989 47.9528C52.486 47.7079 52.9325 47.5854 53.4382 47.5854C53.8569 47.5854 54.2283 47.6723 54.5523 47.8461C54.8762 48.02 55.1251 48.2649 55.2989 48.581V45.772C55.2989 45.5745 55.3621 45.4165 55.4886 45.298C55.6229 45.1715 55.8007 45.1083 56.0219 45.1083ZM53.8293 52.4685C54.3034 52.4685 54.6668 52.3065 54.9197 51.9825C55.1804 51.6586 55.3108 51.1963 55.3108 50.5958C55.3108 49.9953 55.1804 49.537 54.9197 49.221C54.6668 48.897 54.3073 48.7351 53.8411 48.7351C53.367 48.7351 52.9996 48.8931 52.7389 49.2091C52.4781 49.5252 52.3478 49.9795 52.3478 50.5721C52.3478 51.1726 52.4781 51.6388 52.7389 51.9707C52.9996 52.3025 53.3631 52.4685 53.8293 52.4685ZM65.0405 52.4922C65.4355 52.5159 65.6331 52.6936 65.6331 53.0255C65.6331 53.2151 65.554 53.3613 65.396 53.464C65.2459 53.5588 65.0286 53.5983 64.7442 53.5825L64.4242 53.5588C63.0967 53.464 62.433 52.7529 62.433 51.4255V48.8417H61.8404C61.6271 48.8417 61.4611 48.7943 61.3426 48.6995C61.232 48.6047 61.1767 48.4664 61.1767 48.2847C61.1767 48.1029 61.232 47.9647 61.3426 47.8699C61.4611 47.775 61.6271 47.7276 61.8404 47.7276H62.433V46.6372C62.433 46.4239 62.5002 46.254 62.6345 46.1276C62.7688 46.0012 62.9505 45.938 63.1797 45.938C63.4009 45.938 63.5787 46.0012 63.713 46.1276C63.8474 46.254 63.9145 46.4239 63.9145 46.6372V47.7276H64.9219C65.1353 47.7276 65.2973 47.775 65.4079 47.8699C65.5264 47.9647 65.5857 48.1029 65.5857 48.2847C65.5857 48.4664 65.5264 48.6047 65.4079 48.6995C65.2973 48.7943 65.1353 48.8417 64.9219 48.8417H63.9145V51.5321C63.9145 52.1168 64.1832 52.4289 64.7205 52.4685L65.0405 52.4922ZM69.3021 53.6181C68.7095 53.6181 68.188 53.4956 67.7376 53.2507C67.2951 53.0057 66.9514 52.6541 66.7065 52.1959C66.4616 51.7376 66.3391 51.2042 66.3391 50.5958C66.3391 49.9874 66.4616 49.458 66.7065 49.0077C66.9514 48.5494 67.2951 48.1978 67.7376 47.9528C68.188 47.7079 68.7095 47.5854 69.3021 47.5854C69.8947 47.5854 70.4122 47.7079 70.8547 47.9528C71.3051 48.1978 71.6488 48.5494 71.8858 49.0077C72.1308 49.458 72.2533 49.9874 72.2533 50.5958C72.2533 51.2042 72.1308 51.7376 71.8858 52.1959C71.6488 52.6541 71.3051 53.0057 70.8547 53.2507C70.4122 53.4956 69.8947 53.6181 69.3021 53.6181ZM69.2902 52.4685C69.7722 52.4685 70.1396 52.3104 70.3925 51.9944C70.6453 51.6783 70.7717 51.2121 70.7717 50.5958C70.7717 49.9874 70.6453 49.5252 70.3925 49.2091C70.1396 48.8852 69.7762 48.7232 69.3021 48.7232C68.828 48.7232 68.4606 48.8852 68.1999 49.2091C67.947 49.5252 67.8206 49.9874 67.8206 50.5958C67.8206 51.2121 67.947 51.6783 68.1999 51.9944C68.4527 52.3104 68.8162 52.4685 69.2902 52.4685ZM79.7738 53.6181C79.197 53.6181 78.6874 53.4956 78.2449 53.2507C77.8103 53.0057 77.4745 52.6581 77.2375 52.2077C77.0004 51.7573 76.8819 51.2319 76.8819 50.6314C76.8819 50.0309 77.0044 49.5015 77.2493 49.0432C77.5022 48.577 77.8538 48.2175 78.3042 47.9647C78.7545 47.7118 79.2721 47.5854 79.8568 47.5854C80.1649 47.5854 80.4731 47.6289 80.7812 47.7158C81.0973 47.8027 81.3738 47.9212 81.6109 48.0713C81.8637 48.2373 81.9902 48.4467 81.9902 48.6995C81.9902 48.8733 81.9467 49.0156 81.8598 49.1262C81.7808 49.2289 81.6741 49.2802 81.5398 49.2802C81.4529 49.2802 81.362 49.2605 81.2672 49.221C81.1724 49.1815 81.0775 49.1341 80.9827 49.0788C80.8089 48.976 80.643 48.897 80.4849 48.8417C80.3269 48.7785 80.1452 48.7469 79.9397 48.7469C79.4499 48.7469 79.0706 48.9089 78.802 49.2328C78.5412 49.5489 78.4108 50.0072 78.4108 50.6077C78.4108 51.2003 78.5412 51.6586 78.802 51.9825C79.0706 52.2986 79.4499 52.4566 79.9397 52.4566C80.1373 52.4566 80.3111 52.4289 80.4612 52.3736C80.6193 52.3104 80.7931 52.2275 80.9827 52.1247C81.1013 52.0536 81.204 52.0023 81.2909 51.9707C81.3778 51.9312 81.4647 51.9114 81.5516 51.9114C81.6781 51.9114 81.7847 51.9667 81.8716 52.0773C81.9586 52.188 82.002 52.3262 82.002 52.4922C82.002 52.6265 81.9704 52.745 81.9072 52.8477C81.8519 52.9425 81.7571 53.0294 81.6227 53.1085C81.3778 53.2665 81.0934 53.3929 80.7694 53.4877C80.4454 53.5746 80.1136 53.6181 79.7738 53.6181ZM85.7557 47.5854C86.5616 47.5854 87.1582 47.7869 87.5453 48.1899C87.9404 48.5849 88.1379 49.1894 88.1379 50.0032V52.8951C88.1379 53.1085 88.0747 53.2783 87.9483 53.4048C87.8219 53.5233 87.6481 53.5825 87.4268 53.5825C87.2214 53.5825 87.0515 53.5193 86.9172 53.3929C86.7908 53.2665 86.7275 53.1006 86.7275 52.8951V52.6344C86.5932 52.9425 86.3799 53.1835 86.0875 53.3574C85.8031 53.5312 85.4712 53.6181 85.092 53.6181C84.7048 53.6181 84.3532 53.5391 84.0371 53.3811C83.7211 53.223 83.4722 53.0057 83.2904 52.7292C83.1087 52.4526 83.0178 52.1445 83.0178 51.8047C83.0178 51.3781 83.1245 51.0423 83.3379 50.7973C83.5591 50.5524 83.9147 50.3746 84.4045 50.264C84.8944 50.1534 85.57 50.098 86.4312 50.098H86.7275V49.8254C86.7275 49.4383 86.6446 49.1578 86.4786 48.9839C86.3127 48.8022 86.0441 48.7114 85.6727 48.7114C85.4436 48.7114 85.2105 48.7469 84.9734 48.818C84.7364 48.8812 84.4559 48.976 84.1319 49.1025C83.9265 49.2052 83.7764 49.2565 83.6816 49.2565C83.5393 49.2565 83.4208 49.2052 83.326 49.1025C83.2391 48.9998 83.1956 48.8654 83.1956 48.6995C83.1956 48.5652 83.2272 48.4506 83.2904 48.3558C83.3616 48.2531 83.4761 48.1583 83.6342 48.0713C83.9107 47.9212 84.2386 47.8027 84.6179 47.7158C85.005 47.6289 85.3843 47.5854 85.7557 47.5854ZM85.3883 52.5514C85.7833 52.5514 86.1033 52.421 86.3483 52.1603C86.6011 51.8917 86.7275 51.5479 86.7275 51.1292V50.8803H86.5142C85.9848 50.8803 85.5739 50.904 85.2816 50.9514C84.9892 50.9988 84.7799 51.0818 84.6534 51.2003C84.527 51.3188 84.4638 51.4808 84.4638 51.6862C84.4638 51.9391 84.5507 52.1484 84.7245 52.3144C84.9063 52.4724 85.1275 52.5514 85.3883 52.5514ZM93.1332 47.6091C93.3386 47.5933 93.5006 47.6368 93.6191 47.7395C93.7376 47.8422 93.7969 47.9963 93.7969 48.2017C93.7969 48.415 93.7455 48.5731 93.6428 48.6758C93.5401 48.7785 93.3544 48.8457 93.0858 48.8773L92.7302 48.9128C92.264 48.9602 91.9203 49.1183 91.6991 49.3869C91.4858 49.6556 91.3791 49.9914 91.3791 50.3943V52.8833C91.3791 53.1124 91.308 53.2902 91.1658 53.4166C91.0235 53.5351 90.8457 53.5944 90.6324 53.5944C90.4191 53.5944 90.2413 53.5351 90.0991 53.4166C89.9647 53.2902 89.8976 53.1124 89.8976 52.8833V48.2965C89.8976 48.0753 89.9647 47.9054 90.0991 47.7869C90.2413 47.6684 90.4151 47.6091 90.6206 47.6091C90.826 47.6091 90.9919 47.6684 91.1183 47.7869C91.2448 47.8975 91.308 48.0595 91.308 48.2728V48.7469C91.4581 48.3992 91.6793 48.1306 91.9717 47.941C92.2719 47.7513 92.6038 47.6447 92.9673 47.621L93.1332 47.6091ZM98.2315 52.4922C98.6266 52.5159 98.8241 52.6936 98.8241 53.0255C98.8241 53.2151 98.7451 53.3613 98.5871 53.464C98.4369 53.5588 98.2197 53.5983 97.9352 53.5825L97.6152 53.5588C96.2878 53.464 95.6241 52.7529 95.6241 51.4255V48.8417H95.0315C94.8181 48.8417 94.6522 48.7943 94.5337 48.6995C94.423 48.6047 94.3677 48.4664 94.3677 48.2847C94.3677 48.1029 94.423 47.9647 94.5337 47.8699C94.6522 47.775 94.8181 47.7276 95.0315 47.7276H95.6241V46.6372C95.6241 46.4239 95.6912 46.254 95.8255 46.1276C95.9599 46.0012 96.1416 45.938 96.3707 45.938C96.592 45.938 96.7698 46.0012 96.9041 46.1276C97.0384 46.254 97.1056 46.4239 97.1056 46.6372V47.7276H98.113C98.3263 47.7276 98.4883 47.775 98.5989 47.8699C98.7174 47.9647 98.7767 48.1029 98.7767 48.2847C98.7767 48.4664 98.7174 48.6047 98.5989 48.6995C98.4883 48.7943 98.3263 48.8417 98.113 48.8417H97.1056V51.5321C97.1056 52.1168 97.3742 52.4289 97.9115 52.4685L98.2315 52.4922Z" fill="#4E60FF"/>
<g clip-path="url(#clip0_302_898)">
<path d="M58.9653 11.7235C59.4394 11.7235 59.6764 11.925 59.6764 12.328C59.6764 12.7468 59.4394 12.9562 58.9653 12.9562H54.9593C54.4773 12.9562 54.2364 12.7468 54.2364 12.328C54.2364 11.925 54.4773 11.7235 54.9593 11.7235H56.1919V6.31901L55.0541 7.01828C54.9435 7.08149 54.8448 7.1131 54.7578 7.1131C54.5919 7.1131 54.4497 7.04199 54.3312 6.89976C54.2205 6.75754 54.1652 6.59951 54.1652 6.42568C54.1652 6.19654 54.268 6.01876 54.4734 5.89234L56.3105 4.75454C56.5475 4.61231 56.7727 4.5412 56.986 4.5412C57.2073 4.5412 57.385 4.60836 57.5194 4.74269C57.6537 4.87701 57.7209 5.06269 57.7209 5.29973V11.7235H58.9653Z" fill="#2B2B43"/>
<rect x="70.1259" y="0.956161" width="16.9315" height="16.9315" rx="6.7726" fill="#EDEEF2"/>
<path d="M78.5917 6.4589V12.3849" stroke="#2B2B43" stroke-width="1.26986" stroke-linecap="round" stroke-linejoin="round"/>
<path d="M75.6287 9.42192H81.5547" stroke="#2B2B43" stroke-width="1.26986" stroke-linecap="round" stroke-linejoin="round"/>
<rect opacity="0.5" x="26.104" y="0.956161" width="16.9315" height="16.9315" rx="6.7726" fill="#EDEEF2"/>
<g opacity="0.5">
<path d="M31.6068 9.42192H37.5328" stroke="#C7C8D2" stroke-width="1.26986" stroke-linecap="round" stroke-linejoin="round"/>
</g>
</g>
<defs>
<clipPath id="clip0_302_898">
<rect width="60.9534" height="16.9315" fill="white" transform="translate(26.104 0.956161)"/>
</clipPath>
</defs>
</svg>
