<svg width="52" height="52" viewBox="0 0 52 52" fill="none" xmlns="http://www.w3.org/2000/svg">
<rect y="4" width="48" height="48" rx="16" fill="#F3F4FF"/>
<path d="M19 19.6667L16.5 23V34.6667C16.5 35.1087 16.6756 35.5326 16.9882 35.8452C17.3007 36.1578 17.7246 36.3334 18.1667 36.3334H29.8333C30.2754 36.3334 30.6993 36.1578 31.0118 35.8452C31.3244 35.5326 31.5 35.1087 31.5 34.6667V23L29 19.6667H19Z" stroke="#4E60FF" stroke-width="1.5" stroke-linecap="round" stroke-linejoin="round"/>
<path d="M16.5 23H31.5" stroke="#4E60FF" stroke-width="1.5" stroke-linecap="round" stroke-linejoin="round"/>
<path d="M27.3333 26.3333C27.3333 27.2174 26.9821 28.0652 26.357 28.6903C25.7319 29.3155 24.884 29.6666 24 29.6666C23.1159 29.6666 22.2681 29.3155 21.6429 28.6903C21.0178 28.0652 20.6666 27.2174 20.6666 26.3333" stroke="#4E60FF" stroke-width="1.5" stroke-linecap="round" stroke-linejoin="round"/>
<rect x="32" width="20" height="20" rx="8" fill="#4E60FF"/>
<path d="M44.252 11.62C44.452 11.62 44.602 11.6633 44.702 11.75C44.802 11.8367 44.852 11.96 44.852 12.12C44.852 12.4533 44.652 12.62 44.252 12.62H43.742V13.41C43.742 13.6167 43.682 13.7767 43.562 13.89C43.4486 14.0033 43.2986 14.06 43.112 14.06C42.9253 14.06 42.772 14.0033 42.652 13.89C42.5386 13.7767 42.482 13.6167 42.482 13.41V12.62H39.862C39.682 12.62 39.542 12.57 39.442 12.47C39.342 12.3633 39.292 12.2333 39.292 12.08C39.292 11.92 39.3453 11.7667 39.452 11.62L42.542 7.18C42.6086 7.08667 42.692 7.01667 42.792 6.97C42.892 6.91667 42.9953 6.89 43.102 6.89C43.2753 6.89 43.4253 6.94667 43.552 7.06C43.6786 7.17333 43.742 7.33333 43.742 7.54V11.62H44.252ZM40.622 11.62H42.482V8.93L40.622 11.62Z" fill="white"/>
</svg>
