<svg width="113" height="38" viewBox="0 0 113 38" fill="none" xmlns="http://www.w3.org/2000/svg">
<path d="M0.0465088 7.13697C0.0465088 3.39657 3.07871 0.36438 6.81911 0.36438H105.682C109.423 0.36438 112.455 3.39658 112.455 7.13698V30.9096C112.455 34.65 109.423 37.6822 105.682 37.6822H6.81912C3.07871 37.6822 0.0465088 34.65 0.0465088 30.9096V7.13697Z" fill="#F3F4FF"/>
<path d="M20.3643 15.0726V22.974" stroke="#4E60FF" stroke-width="1.26986" stroke-linecap="round" stroke-linejoin="round"/>
<path d="M16.4136 19.0233H24.3149" stroke="#4E60FF" stroke-width="1.26986" stroke-linecap="round" stroke-linejoin="round"/>
<path d="M42.4675 21.6107C42.5149 21.7134 42.5386 21.8161 42.5386 21.9188C42.5386 22.1006 42.4636 22.2546 42.3135 22.3811C42.1712 22.5075 42.0053 22.5707 41.8157 22.5707C41.6892 22.5707 41.5707 22.5391 41.4601 22.4759C41.3495 22.4048 41.2626 22.2981 41.1994 22.1559L40.4882 20.5677H36.3163L35.6052 22.1559C35.542 22.2981 35.4551 22.4048 35.3444 22.4759C35.2338 22.5391 35.1114 22.5707 34.977 22.5707C34.7953 22.5707 34.6294 22.5075 34.4792 22.3811C34.3291 22.2546 34.2541 22.1006 34.2541 21.9188C34.2541 21.8161 34.2778 21.7134 34.3252 21.6107L37.5963 14.5824C37.6675 14.4244 37.7741 14.3059 37.9163 14.2268C38.0665 14.1399 38.2245 14.0965 38.3904 14.0965C38.5564 14.0965 38.7104 14.1399 38.8527 14.2268C39.0028 14.3059 39.1134 14.4244 39.1845 14.5824L42.4675 21.6107ZM36.8378 19.3825H39.9667L38.4023 15.8624L36.8378 19.3825ZM48.6498 14.1083C48.871 14.1083 49.0527 14.1715 49.195 14.298C49.3372 14.4244 49.4083 14.5903 49.4083 14.7957V21.8833C49.4083 22.0966 49.3411 22.2665 49.2068 22.3929C49.0725 22.5193 48.8947 22.5825 48.6735 22.5825C48.4522 22.5825 48.2744 22.5193 48.1401 22.3929C48.0058 22.2665 47.9386 22.0966 47.9386 21.8833V21.587C47.7648 21.9109 47.512 22.1638 47.1801 22.3455C46.8561 22.5272 46.4848 22.6181 46.066 22.6181C45.5682 22.6181 45.1218 22.4917 44.7267 22.2388C44.3396 21.986 44.0354 21.6304 43.8141 21.1722C43.6008 20.706 43.4941 20.1726 43.4941 19.5721C43.4941 18.9716 43.6008 18.4462 43.8141 17.9958C44.0354 17.5454 44.3396 17.1978 44.7267 16.9528C45.1139 16.7079 45.5603 16.5854 46.066 16.5854C46.4848 16.5854 46.8561 16.6723 47.1801 16.8461C47.5041 17.02 47.753 17.2649 47.9268 17.581V14.772C47.9268 14.5745 47.99 14.4165 48.1164 14.298C48.2507 14.1715 48.4285 14.1083 48.6498 14.1083ZM46.4571 21.4685C46.9312 21.4685 47.2947 21.3065 47.5475 20.9825C47.8083 20.6586 47.9386 20.1963 47.9386 19.5958C47.9386 18.9953 47.8083 18.537 47.5475 18.221C47.2947 17.897 46.9352 17.7351 46.469 17.7351C45.9949 17.7351 45.6275 17.8931 45.3667 18.2091C45.106 18.5252 44.9756 18.9795 44.9756 19.5721C44.9756 20.1726 45.106 20.6388 45.3667 20.9707C45.6275 21.3025 45.9909 21.4685 46.4571 21.4685ZM56.0219 14.1083C56.2431 14.1083 56.4249 14.1715 56.5671 14.298C56.7093 14.4244 56.7804 14.5903 56.7804 14.7957V21.8833C56.7804 22.0966 56.7133 22.2665 56.579 22.3929C56.4446 22.5193 56.2668 22.5825 56.0456 22.5825C55.8244 22.5825 55.6466 22.5193 55.5123 22.3929C55.3779 22.2665 55.3108 22.0966 55.3108 21.8833V21.587C55.137 21.9109 54.8841 22.1638 54.5523 22.3455C54.2283 22.5272 53.8569 22.6181 53.4382 22.6181C52.9404 22.6181 52.4939 22.4917 52.0989 22.2388C51.7117 21.986 51.4075 21.6304 51.1863 21.1722C50.9729 20.706 50.8663 20.1726 50.8663 19.5721C50.8663 18.9716 50.9729 18.4462 51.1863 17.9958C51.4075 17.5454 51.7117 17.1978 52.0989 16.9528C52.486 16.7079 52.9325 16.5854 53.4382 16.5854C53.8569 16.5854 54.2283 16.6723 54.5523 16.8461C54.8762 17.02 55.1251 17.2649 55.2989 17.581V14.772C55.2989 14.5745 55.3621 14.4165 55.4886 14.298C55.6229 14.1715 55.8007 14.1083 56.0219 14.1083ZM53.8293 21.4685C54.3034 21.4685 54.6668 21.3065 54.9197 20.9825C55.1804 20.6586 55.3108 20.1963 55.3108 19.5958C55.3108 18.9953 55.1804 18.537 54.9197 18.221C54.6668 17.897 54.3073 17.7351 53.8411 17.7351C53.367 17.7351 52.9996 17.8931 52.7389 18.2091C52.4781 18.5252 52.3478 18.9795 52.3478 19.5721C52.3478 20.1726 52.4781 20.6388 52.7389 20.9707C52.9996 21.3025 53.3631 21.4685 53.8293 21.4685ZM65.0405 21.4922C65.4355 21.5159 65.6331 21.6936 65.6331 22.0255C65.6331 22.2151 65.554 22.3613 65.396 22.464C65.2459 22.5588 65.0286 22.5983 64.7442 22.5825L64.4242 22.5588C63.0967 22.464 62.433 21.7529 62.433 20.4255V17.8417H61.8404C61.6271 17.8417 61.4611 17.7943 61.3426 17.6995C61.232 17.6047 61.1767 17.4664 61.1767 17.2847C61.1767 17.1029 61.232 16.9647 61.3426 16.8699C61.4611 16.775 61.6271 16.7276 61.8404 16.7276H62.433V15.6372C62.433 15.4239 62.5002 15.254 62.6345 15.1276C62.7688 15.0012 62.9505 14.938 63.1797 14.938C63.4009 14.938 63.5787 15.0012 63.713 15.1276C63.8474 15.254 63.9145 15.4239 63.9145 15.6372V16.7276H64.9219C65.1353 16.7276 65.2973 16.775 65.4079 16.8699C65.5264 16.9647 65.5857 17.1029 65.5857 17.2847C65.5857 17.4664 65.5264 17.6047 65.4079 17.6995C65.2973 17.7943 65.1353 17.8417 64.9219 17.8417H63.9145V20.5321C63.9145 21.1168 64.1832 21.4289 64.7205 21.4685L65.0405 21.4922ZM69.3021 22.6181C68.7095 22.6181 68.188 22.4956 67.7376 22.2507C67.2951 22.0057 66.9514 21.6541 66.7065 21.1959C66.4616 20.7376 66.3391 20.2042 66.3391 19.5958C66.3391 18.9874 66.4616 18.458 66.7065 18.0077C66.9514 17.5494 67.2951 17.1978 67.7376 16.9528C68.188 16.7079 68.7095 16.5854 69.3021 16.5854C69.8947 16.5854 70.4122 16.7079 70.8547 16.9528C71.3051 17.1978 71.6488 17.5494 71.8858 18.0077C72.1308 18.458 72.2533 18.9874 72.2533 19.5958C72.2533 20.2042 72.1308 20.7376 71.8858 21.1959C71.6488 21.6541 71.3051 22.0057 70.8547 22.2507C70.4122 22.4956 69.8947 22.6181 69.3021 22.6181ZM69.2902 21.4685C69.7722 21.4685 70.1396 21.3104 70.3925 20.9944C70.6453 20.6783 70.7717 20.2121 70.7717 19.5958C70.7717 18.9874 70.6453 18.5252 70.3925 18.2091C70.1396 17.8852 69.7762 17.7232 69.3021 17.7232C68.828 17.7232 68.4606 17.8852 68.1999 18.2091C67.947 18.5252 67.8206 18.9874 67.8206 19.5958C67.8206 20.2121 67.947 20.6783 68.1999 20.9944C68.4527 21.3104 68.8162 21.4685 69.2902 21.4685ZM79.7738 22.6181C79.197 22.6181 78.6874 22.4956 78.2449 22.2507C77.8103 22.0057 77.4745 21.6581 77.2375 21.2077C77.0004 20.7573 76.8819 20.2319 76.8819 19.6314C76.8819 19.0309 77.0044 18.5015 77.2493 18.0432C77.5022 17.577 77.8538 17.2175 78.3042 16.9647C78.7545 16.7118 79.2721 16.5854 79.8568 16.5854C80.1649 16.5854 80.4731 16.6289 80.7812 16.7158C81.0973 16.8027 81.3738 16.9212 81.6109 17.0713C81.8637 17.2373 81.9902 17.4467 81.9902 17.6995C81.9902 17.8733 81.9467 18.0156 81.8598 18.1262C81.7808 18.2289 81.6741 18.2802 81.5398 18.2802C81.4529 18.2802 81.362 18.2605 81.2672 18.221C81.1724 18.1815 81.0775 18.1341 80.9827 18.0788C80.8089 17.976 80.643 17.897 80.4849 17.8417C80.3269 17.7785 80.1452 17.7469 79.9397 17.7469C79.4499 17.7469 79.0706 17.9089 78.802 18.2328C78.5412 18.5489 78.4108 19.0072 78.4108 19.6077C78.4108 20.2003 78.5412 20.6586 78.802 20.9825C79.0706 21.2986 79.4499 21.4566 79.9397 21.4566C80.1373 21.4566 80.3111 21.4289 80.4612 21.3736C80.6193 21.3104 80.7931 21.2275 80.9827 21.1247C81.1013 21.0536 81.204 21.0023 81.2909 20.9707C81.3778 20.9312 81.4647 20.9114 81.5516 20.9114C81.6781 20.9114 81.7847 20.9667 81.8716 21.0773C81.9586 21.188 82.002 21.3262 82.002 21.4922C82.002 21.6265 81.9704 21.745 81.9072 21.8477C81.8519 21.9425 81.7571 22.0294 81.6227 22.1085C81.3778 22.2665 81.0934 22.3929 80.7694 22.4877C80.4454 22.5746 80.1136 22.6181 79.7738 22.6181ZM85.7557 16.5854C86.5616 16.5854 87.1582 16.7869 87.5453 17.1899C87.9404 17.5849 88.1379 18.1894 88.1379 19.0032V21.8951C88.1379 22.1085 88.0747 22.2783 87.9483 22.4048C87.8219 22.5233 87.6481 22.5825 87.4268 22.5825C87.2214 22.5825 87.0515 22.5193 86.9172 22.3929C86.7908 22.2665 86.7275 22.1006 86.7275 21.8951V21.6344C86.5932 21.9425 86.3799 22.1835 86.0875 22.3574C85.8031 22.5312 85.4712 22.6181 85.092 22.6181C84.7048 22.6181 84.3532 22.5391 84.0371 22.3811C83.7211 22.223 83.4722 22.0057 83.2904 21.7292C83.1087 21.4526 83.0178 21.1445 83.0178 20.8047C83.0178 20.3781 83.1245 20.0423 83.3379 19.7973C83.5591 19.5524 83.9147 19.3746 84.4045 19.264C84.8944 19.1534 85.57 19.098 86.4312 19.098H86.7275V18.8254C86.7275 18.4383 86.6446 18.1578 86.4786 17.9839C86.3127 17.8022 86.0441 17.7114 85.6727 17.7114C85.4436 17.7114 85.2105 17.7469 84.9734 17.818C84.7364 17.8812 84.4559 17.976 84.1319 18.1025C83.9265 18.2052 83.7764 18.2565 83.6816 18.2565C83.5393 18.2565 83.4208 18.2052 83.326 18.1025C83.2391 17.9998 83.1956 17.8654 83.1956 17.6995C83.1956 17.5652 83.2272 17.4506 83.2904 17.3558C83.3616 17.2531 83.4761 17.1583 83.6342 17.0713C83.9107 16.9212 84.2386 16.8027 84.6179 16.7158C85.005 16.6289 85.3843 16.5854 85.7557 16.5854ZM85.3883 21.5514C85.7833 21.5514 86.1033 21.421 86.3483 21.1603C86.6011 20.8917 86.7275 20.5479 86.7275 20.1292V19.8803H86.5142C85.9848 19.8803 85.5739 19.904 85.2816 19.9514C84.9892 19.9988 84.7799 20.0818 84.6534 20.2003C84.527 20.3188 84.4638 20.4808 84.4638 20.6862C84.4638 20.9391 84.5507 21.1484 84.7245 21.3144C84.9063 21.4724 85.1275 21.5514 85.3883 21.5514ZM93.1332 16.6091C93.3386 16.5933 93.5006 16.6368 93.6191 16.7395C93.7376 16.8422 93.7969 16.9963 93.7969 17.2017C93.7969 17.415 93.7455 17.5731 93.6428 17.6758C93.5401 17.7785 93.3544 17.8457 93.0858 17.8773L92.7302 17.9128C92.264 17.9602 91.9203 18.1183 91.6991 18.3869C91.4858 18.6556 91.3791 18.9914 91.3791 19.3943V21.8833C91.3791 22.1124 91.308 22.2902 91.1658 22.4166C91.0235 22.5351 90.8457 22.5944 90.6324 22.5944C90.4191 22.5944 90.2413 22.5351 90.0991 22.4166C89.9647 22.2902 89.8976 22.1124 89.8976 21.8833V17.2965C89.8976 17.0753 89.9647 16.9054 90.0991 16.7869C90.2413 16.6684 90.4151 16.6091 90.6206 16.6091C90.826 16.6091 90.9919 16.6684 91.1183 16.7869C91.2448 16.8975 91.308 17.0595 91.308 17.2728V17.7469C91.4581 17.3992 91.6793 17.1306 91.9717 16.941C92.2719 16.7513 92.6038 16.6447 92.9673 16.621L93.1332 16.6091ZM98.2315 21.4922C98.6266 21.5159 98.8241 21.6936 98.8241 22.0255C98.8241 22.2151 98.7451 22.3613 98.5871 22.464C98.4369 22.5588 98.2197 22.5983 97.9352 22.5825L97.6152 22.5588C96.2878 22.464 95.6241 21.7529 95.6241 20.4255V17.8417H95.0315C94.8181 17.8417 94.6522 17.7943 94.5337 17.6995C94.423 17.6047 94.3677 17.4664 94.3677 17.2847C94.3677 17.1029 94.423 16.9647 94.5337 16.8699C94.6522 16.775 94.8181 16.7276 95.0315 16.7276H95.6241V15.6372C95.6241 15.4239 95.6912 15.254 95.8255 15.1276C95.9599 15.0012 96.1416 14.938 96.3707 14.938C96.592 14.938 96.7698 15.0012 96.9041 15.1276C97.0384 15.254 97.1056 15.4239 97.1056 15.6372V16.7276H98.113C98.3263 16.7276 98.4883 16.775 98.5989 16.8699C98.7174 16.9647 98.7767 17.1029 98.7767 17.2847C98.7767 17.4664 98.7174 17.6047 98.5989 17.6995C98.4883 17.7943 98.3263 17.8417 98.113 17.8417H97.1056V20.5321C97.1056 21.1168 97.3742 21.4289 97.9115 21.4685L98.2315 21.4922Z" fill="#4E60FF"/>
</svg>
