<svg width="14" height="14" viewBox="0 0 14 14" fill="none" xmlns="http://www.w3.org/2000/svg">
<path d="M9.71801 0.720964H11.3098C11.6473 0.714997 11.9751 0.833129 12.2312 1.05293C12.4873 1.27274 12.6537 1.57892 12.699 1.91335V6.08668C12.6537 6.42111 12.4873 6.72728 12.2312 6.94709C11.9751 7.1669 11.6473 7.28503 11.3098 7.27906H9.71801M5.54468 8.47144V10.8562C5.54468 11.3306 5.73312 11.7855 6.06854 12.1209C6.40396 12.4563 6.85889 12.6448 7.33325 12.6448L9.71801 7.27906V0.720964H2.99298C2.70542 0.717714 2.42638 0.818498 2.20726 1.00475C1.98814 1.191 1.84372 1.45016 1.8006 1.73449L0.977858 7.1002C0.951919 7.2711 0.963445 7.44559 1.01164 7.61158C1.05983 7.77758 1.14354 7.93112 1.25696 8.06155C1.37038 8.19199 1.5108 8.2962 1.6685 8.36698C1.8262 8.43775 1.9974 8.4734 2.17024 8.47144H5.54468Z" stroke="#83859C" stroke-width="0.894286" stroke-linecap="round" stroke-linejoin="round"/>
</svg>
